<svg xmlns:xlink="http://www.w3.org/1999/xlink" viewBox="0 0 1309.84 294.75" style="shape-rendering:geometricPrecision; text-rendering:geometricPrecision; image-rendering:optimizeQuality; fill-rule:evenodd; clip-rule:evenodd" version="1.1" height="6.5311mm" width="29.0236mm" xml:space="preserve" xmlns="http://www.w3.org/2000/svg">
 <defs>
  <style type="text/css">
   
    .fil1 {fill:#EE4144}
    .fil0 {fill:white}
    .fil2 {fill:#3D5AFF;fill-rule:nonzero}
   
  </style>
 </defs>
 <g id="Camada_x0020_1">
  <metadata id="CorelCorpID_0Corel-Layer"></metadata>
  <g id="_2565540917312">
   <rect height="129.96" width="264.11" y="73.14" x="497.46" class="fil0"></rect>
   <g>
    <g>
     <g>
      <path d="M710.73 163.64c2.64,0 5.17,-0.79 7.61,-2.34 2.44,-1.54 4.29,-3.66 5.57,-6.37l0 -13.14c-1.18,-3.2 -3.13,-5.8 -5.79,-7.83 -2.68,-2.01 -5.46,-3.04 -8.34,-3.04 -2.06,0 -3.98,0.45 -5.68,1.38 -1.71,0.9 -3.2,2.13 -4.5,3.63 -1.28,1.52 -2.25,3.25 -2.92,5.25 -0.67,1.99 -1.03,4.09 -1.03,6.34 0,2.3 0.39,4.45 1.14,6.44 0.77,1.99 1.8,3.71 3.11,5.12 1.31,1.44 2.92,2.57 4.8,3.37 1.88,0.8 3.9,1.19 6.04,1.19zm-5.14 16.13c-4.31,0 -8.28,-0.81 -11.92,-2.48 -3.64,-1.6 -6.77,-3.89 -9.39,-6.86 -2.66,-2.92 -4.7,-6.39 -6.19,-10.32 -1.46,-3.94 -2.21,-8.26 -2.21,-12.97 0,-4.53 0.68,-8.8 2.04,-12.77 1.35,-3.97 3.26,-7.42 5.75,-10.33 2.46,-2.93 5.4,-5.21 8.8,-6.88 3.39,-1.68 7.12,-2.51 11.19,-2.51 4.38,0 8.36,1.03 11.92,3.09 3.56,2.09 6.3,4.87 8.21,8.39l0 -34.77 19.18 0 0 65.7c0,1.92 0.28,3.24 0.9,4 0.58,0.75 1.63,1.22 3.17,1.39l0 16.12c-1.76,0.39 -3.28,0.67 -4.58,0.77 -1.27,0.14 -2.46,0.2 -3.57,0.2 -3.36,0 -6.06,-0.71 -8.16,-2.11 -2.06,-1.39 -3.26,-3.4 -3.58,-6.01l-0.37 -3.23c-2.23,3.91 -5.23,6.79 -9.04,8.71 -3.79,1.92 -7.83,2.87 -12.15,2.87zm-44.4 -1.2l-19.16 0 0 -35.24c0,-4.15 -0.77,-7.16 -2.34,-9.02 -1.56,-1.88 -3.61,-2.81 -6.17,-2.81 -1.35,0 -2.7,0.29 -4.05,0.86 -1.37,0.52 -2.7,1.31 -3.95,2.31 -1.3,1 -2.42,2.18 -3.43,3.52 -0.99,1.35 -1.76,2.83 -2.34,4.43l0 35.96 -19.14 0 0 -62.72 17.23 0 0 10.51c2.33,-3.74 5.61,-6.63 9.82,-8.65 4.23,-2.02 9.11,-3.05 14.62,-3.05 4.07,0 7.35,0.71 9.82,2.22 2.48,1.48 4.38,3.4 5.75,5.74 1.35,2.34 2.25,4.9 2.68,7.69 0.45,2.79 0.66,5.5 0.66,8.14l0 40.13zm-112.91 -12.52c2.09,0 4.11,-0.36 6.06,-1.1 1.97,-0.7 3.58,-1.67 4.85,-2.85 1.84,-1.44 2.76,-2.97 2.76,-4.55l0 -5.99c-1.67,-0.61 -3.51,-1.12 -5.46,-1.48 -1.95,-0.38 -3.77,-0.55 -5.45,-0.55 -3.51,0 -6.39,0.8 -8.66,2.41 -2.28,1.58 -3.43,3.66 -3.43,6.2 0,2.32 0.88,4.21 2.65,5.69 1.74,1.44 3.99,2.22 6.69,2.22zm-5.62 13.72c-3.11,0 -6,-0.5 -8.68,-1.49 -2.68,-1.02 -4.96,-2.4 -6.87,-4.2 -1.91,-1.8 -3.43,-3.87 -4.55,-6.31 -1.13,-2.46 -1.69,-5.1 -1.69,-7.97 0,-3.09 0.65,-5.9 1.99,-8.48 1.31,-2.53 3.17,-4.73 5.57,-6.56 2.4,-1.83 5.23,-3.27 8.51,-4.29 3.26,-1.03 6.9,-1.58 10.89,-1.58 2.64,0 5.19,0.23 7.67,0.67 2.47,0.45 4.63,1.09 6.47,1.99l0 -2.88c0,-7.25 -4.2,-10.87 -12.58,-10.87 -3.43,0 -6.71,0.57 -9.82,1.73 -3.1,1.16 -6.39,2.89 -9.82,5.2l-5.63 -11.96c4.14,-2.69 8.48,-4.71 12.93,-6.08 4.49,-1.34 9.22,-2.03 14.27,-2.03 9.48,0 16.86,2.25 22.02,6.7 5.19,4.46 7.78,11 7.78,19.59l0 16.12c0,1.92 0.32,3.24 0.9,4 0.6,0.75 1.67,1.22 3.18,1.39l0 16.12c-1.68,0.39 -3.2,0.67 -4.55,0.77 -1.36,0.14 -2.6,0.2 -3.71,0.2 -3.6,0 -6.32,-0.71 -8.16,-2.11 -1.84,-1.39 -2.98,-3.35 -3.47,-5.91l-0.36 -2.86c-2.79,3.57 -6.12,6.32 -10.01,8.25 -3.86,1.92 -7.97,2.87 -12.26,2.87l-0.02 0zm65.78 -150.71l25.27 25.19 25.27 -25.19c38.88,-38.75 102.46,-38.75 141.32,0 98.76,98.51 -97.27,265.65 -166.59,265.69 -69.26,0 -265.36,-167.17 -166.59,-265.69 38.88,-38.75 102.46,-38.75 141.32,0z" class="fil1"></path>
      <path d="M340.38 153.03c0,7.37 1.97,13.27 5.9,17.75 3.94,4.46 8.94,6.67 15.01,6.67 2.98,0 5.72,-0.61 8.23,-1.76 2.49,-1.22 4.67,-2.86 6.52,-5.01 1.84,-2.13 3.3,-4.73 4.37,-7.74 1.07,-3.04 1.62,-6.31 1.62,-9.9 0,-7.37 -1.97,-13.27 -5.89,-17.73 -3.94,-4.45 -8.89,-6.69 -14.85,-6.69 -2.98,0 -5.75,0.58 -8.32,1.8 -2.55,1.18 -4.76,2.83 -6.6,4.99 -1.85,2.12 -3.32,4.72 -4.39,7.77 -1.07,3.01 -1.61,6.3 -1.61,9.87zm20.92 48.49c-7.98,0 -15.11,-1.29 -21.35,-3.92 -6.26,-2.59 -11.55,-6.15 -15.84,-10.61 -4.3,-4.46 -7.54,-9.61 -9.73,-15.51 -2.21,-5.88 -3.32,-12.05 -3.32,-18.45 0,-6.41 1.11,-12.56 3.32,-18.45 2.19,-5.88 5.43,-11.05 9.73,-15.52 4.29,-4.44 9.58,-8.02 15.84,-10.68 6.24,-2.69 13.36,-4.04 21.35,-4.04 7.99,0 15.07,1.35 21.28,4.04 6.21,2.65 11.43,6.24 15.73,10.68 4.29,4.47 7.57,9.64 9.84,15.52 2.25,5.89 3.39,12.04 3.39,18.45 0,6.41 -1.11,12.57 -3.3,18.45 -2.21,5.9 -5.45,11.05 -9.74,15.51 -4.29,4.46 -9.58,8.02 -15.82,10.61 -6.26,2.63 -13.39,3.92 -21.37,3.92zm-151.24 -48.68c0,-6.4 1.12,-12.56 3.39,-18.43 2.27,-5.9 5.56,-11.07 9.82,-15.51 4.3,-4.46 9.58,-8 15.84,-10.61 6.25,-2.63 13.39,-3.94 21.35,-3.94 10.85,0 19.96,2.31 27.35,6.89 7.39,4.55 12.93,10.54 16.63,17.92l-27.87 8.36c-3.71,-5.92 -9.13,-8.9 -16.27,-8.9 -5.96,0 -10.92,2.21 -14.93,6.59 -3.98,4.4 -5.98,10.29 -5.98,17.64 0,3.69 0.55,7.05 1.62,10.09 1.07,3.01 2.55,5.61 4.46,7.74 1.91,2.15 4.14,3.8 6.71,5.01 2.57,1.16 5.27,1.76 8.13,1.76 3.57,0 6.85,-0.87 9.82,-2.57 2.98,-1.73 5.19,-3.96 6.62,-6.69l27.89 8.55c-3.45,7.25 -8.97,13.21 -16.53,17.83 -7.57,4.63 -16.77,6.95 -27.63,6.95 -7.85,0 -14.92,-1.35 -21.18,-4.02 -6.26,-2.66 -11.55,-6.24 -15.91,-10.7 -4.36,-4.45 -7.65,-9.62 -9.92,-15.49 -2.27,-5.89 -3.39,-12.05 -3.39,-18.48zm-79.74 0.19c0,7.37 1.96,13.27 5.9,17.75 3.94,4.46 8.94,6.67 15.01,6.67 2.98,0 5.72,-0.61 8.23,-1.76 2.5,-1.22 4.68,-2.86 6.53,-5.01 1.85,-2.13 3.31,-4.73 4.39,-7.74 1.07,-3.04 1.61,-6.31 1.61,-9.9 0,-7.37 -1.97,-13.27 -5.9,-17.73 -3.94,-4.45 -8.89,-6.69 -14.85,-6.69 -2.98,0 -5.74,0.58 -8.3,1.8 -2.57,1.18 -4.78,2.83 -6.62,4.99 -1.84,2.12 -3.32,4.72 -4.39,7.77 -1.07,3.01 -1.61,6.3 -1.61,9.87zm20.92 48.49c-7.98,0 -15.11,-1.29 -21.35,-3.92 -6.26,-2.59 -11.53,-6.15 -15.82,-10.61 -4.29,-4.46 -7.55,-9.61 -9.74,-15.51 -2.22,-5.88 -3.32,-12.05 -3.32,-18.45 0,-6.41 1.11,-12.56 3.32,-18.45 2.19,-5.88 5.45,-11.05 9.74,-15.52 4.3,-4.44 9.56,-8.02 15.82,-10.68 6.24,-2.69 13.37,-4.04 21.35,-4.04 7.98,0 15.07,1.35 21.28,4.04 6.2,2.65 11.43,6.24 15.72,10.68 4.29,4.47 7.58,9.64 9.84,15.52 2.27,5.89 3.39,12.04 3.39,18.45 0,6.41 -1.1,12.57 -3.3,18.45 -2.21,5.9 -5.45,11.05 -9.74,15.51 -4.29,4.46 -9.56,8.02 -15.82,10.61 -6.26,2.63 -13.39,3.92 -21.37,3.92zm-151.24 -48.68c0,-6.4 1.14,-12.56 3.39,-18.43 2.27,-5.9 5.55,-11.07 9.84,-15.51 4.29,-4.46 9.56,-8 15.82,-10.61 6.26,-2.63 13.36,-3.94 21.36,-3.94 10.84,0 19.97,2.31 27.35,6.89 7.39,4.55 12.92,10.54 16.61,17.92l-27.88 8.36c-3.69,-5.92 -9.13,-8.9 -16.27,-8.9 -5.96,0 -10.94,2.21 -14.92,6.59 -3.99,4.4 -6,10.29 -6,17.64 0,3.69 0.54,7.05 1.61,10.09 1.07,3.01 2.57,5.61 4.46,7.74 1.91,2.15 4.14,3.8 6.71,5.01 2.56,1.16 5.28,1.76 8.13,1.76 3.58,0 6.86,-0.87 9.82,-2.57 3,-1.73 5.19,-3.96 6.62,-6.69l27.89 8.55c-3.45,7.25 -8.96,13.21 -16.53,17.83 -7.55,4.63 -16.78,6.95 -27.63,6.95 -7.85,0 -14.92,-1.35 -21.18,-4.02 -6.24,-2.66 -11.55,-6.24 -15.89,-10.7 -4.35,-4.45 -7.67,-9.62 -9.94,-15.49 -2.27,-5.89 -3.39,-12.05 -3.39,-18.48z" class="fil2"></path>
      <path d="M1204.91 181.02c3.11,0 6.11,-0.52 9.02,-1.61 2.94,-1.07 5.36,-2.48 7.25,-4.26 2.76,-2.15 4.11,-4.4 4.11,-6.78l0 -8.93c-2.49,-0.93 -5.19,-1.67 -8.13,-2.22 -2.91,-0.54 -5.63,-0.79 -8.12,-0.79 -5.27,0 -9.58,1.19 -12.97,3.57 -3.39,2.37 -5.1,5.47 -5.1,9.27 0,3.43 1.31,6.26 3.94,8.47 2.62,2.18 5.96,3.28 10.01,3.28zm-8.39 20.5c-4.65,0 -8.98,-0.74 -12.98,-2.22 -3.99,-1.51 -7.4,-3.56 -10.25,-6.25 -2.89,-2.66 -5.14,-5.8 -6.81,-9.43 -1.68,-3.65 -2.51,-7.6 -2.51,-11.89 0,-4.62 0.98,-8.85 2.97,-12.66 1.95,-3.78 4.74,-7.04 8.3,-9.78 3.56,-2.75 7.82,-4.89 12.69,-6.44 4.87,-1.56 10.33,-2.3 16.27,-2.3 3.94,0 7.74,0.32 11.44,0.99 3.71,0.64 6.92,1.61 9.65,2.92l0 -4.27c0,-10.83 -6.24,-16.25 -18.77,-16.25 -5.12,0 -10.01,0.89 -14.66,2.59 -4.65,1.73 -9.52,4.31 -14.68,7.75l-8.38 -17.81c6.18,-4.04 12.63,-7.08 19.3,-9.09 6.67,-2.03 13.76,-3.05 21.26,-3.05 14.19,0 25.16,3.33 32.9,10 7.74,6.67 11.62,16.4 11.62,29.25l0 24.05c0,2.87 0.45,4.85 1.35,5.96 0.88,1.14 2.46,1.82 4.75,2.08l0 24.04c-2.51,0.6 -4.76,0.99 -6.81,1.18 -2.02,0.17 -3.88,0.26 -5.55,0.26 -5.36,0 -9.41,-1.03 -12.14,-3.11 -2.76,-2.08 -4.46,-5.03 -5.19,-8.84l-0.52 -4.26c-4.16,5.35 -9.15,9.45 -14.94,12.31 -5.75,2.85 -11.86,4.27 -18.31,4.27zm-53.91 -1.79l-28.63 0 0 -52.59c0,-6.2 -1.14,-10.66 -3.47,-13.46 -2.32,-2.77 -5.4,-4.18 -9.2,-4.18 -2.04,0 -4.05,0.42 -6.09,1.25 -2.03,0.83 -3.98,1.99 -5.89,3.47 -1.91,1.48 -3.6,3.23 -5.1,5.25 -1.5,2.02 -2.64,4.23 -3.49,6.6l0 53.65 -28.6 0 0 -93.58 25.76 0 0 15.69c3.45,-5.6 8.32,-9.91 14.66,-12.91 6.31,-3.05 13.57,-4.59 21.79,-4.59 6.07,0 10.97,1.12 14.66,3.31 3.69,2.2 6.56,5.05 8.57,8.55 2.04,3.52 3.37,7.35 4.03,11.5 0.65,4.17 1,8.2 1,12.12l0 59.9zm-182.47 1.79c-9.64,0 -16.95,-2.99 -21.89,-9.01 -4.93,-6 -7.42,-14.81 -7.42,-26.47l0 -59.9 28.6 0 0 53.65c0,5.7 1.15,10.08 3.41,13.1 2.25,3.05 5.47,4.56 9.65,4.56 3.8,0 7.5,-1 11.06,-3.02 3.6,-2.03 6.75,-5.53 9.49,-10.54l0 -57.74 28.63 0 0 61.5c0,2.87 0.43,4.85 1.33,5.96 0.88,1.14 2.48,1.82 4.73,2.08l0 24.04c-2.74,0.6 -5.06,0.99 -6.95,1.18 -1.93,0.17 -3.66,0.26 -5.21,0.26 -10.21,0 -16.08,-3.98 -17.51,-11.95l-0.52 -5.67c-4.3,6.16 -9.64,10.71 -16.01,13.62 -6.37,2.92 -13.49,4.37 -21.37,4.37zm-96.98 -131.92l28.6 0 0 96.79c0,7.14 3.04,10.7 9.11,10.7 1.42,0 3,-0.19 4.74,-0.61 1.73,-0.42 3.3,-1.06 4.73,-1.89l3.75 21.4c-3.57,1.67 -7.67,2.97 -12.32,3.91 -4.65,0.97 -9,1.45 -13.05,1.45 -8.23,0 -14.55,-2.15 -18.95,-6.43 -4.4,-4.28 -6.61,-10.46 -6.61,-18.54l0 -106.78z" class="fil2"></path>
      <path d="M1283.67 178.45l1.58 0c2.29,0 3.69,-0.08 4.26,-0.26 0.54,-0.16 0.96,-0.45 1.3,-0.9 0.3,-0.42 0.45,-0.9 0.45,-1.48 0,-0.51 -0.15,-1 -0.45,-1.41 -0.32,-0.42 -0.75,-0.71 -1.31,-0.9 -0.6,-0.17 -1.99,-0.26 -4.24,-0.26l-1.58 0 0 5.21zm-3.98 11.05l0 -19.35 3.94 0c3.67,0 5.78,0.02 6.21,0.06 1.29,0.09 2.31,0.35 3.03,0.75 0.71,0.4 1.34,1.02 1.82,1.86 0.47,0.83 0.74,1.76 0.74,2.76 0,1.41 -0.45,2.6 -1.37,3.59 -0.92,0.99 -2.19,1.61 -3.84,1.85 0.58,0.21 1.03,0.47 1.35,0.71 0.32,0.27 0.77,0.76 1.31,1.5 0.15,0.19 0.62,0.96 1.45,2.35l2.27 3.91 -4.89 0 -1.59 -3.15c-1.11,-2.12 -2,-3.45 -2.7,-4.01 -0.74,-0.54 -1.63,-0.79 -2.72,-0.79l-1.02 0 0 7.95 -3.98 0zm8.27 -28.04c3.15,0 6.16,0.76 9.05,2.37 2.88,1.54 5.13,3.78 6.8,6.72 1.63,2.92 2.48,5.97 2.48,9.17 0,3.18 -0.83,6.21 -2.44,9.1 -1.62,2.89 -3.86,5.12 -6.75,6.76 -2.9,1.6 -5.96,2.41 -9.14,2.41 -3.17,0 -6.22,-0.8 -9.12,-2.41 -2.88,-1.64 -5.13,-3.87 -6.76,-6.76 -1.62,-2.89 -2.41,-5.92 -2.41,-9.1 0,-3.2 0.82,-6.25 2.47,-9.17 1.65,-2.94 3.92,-5.18 6.81,-6.72 2.87,-1.61 5.89,-2.37 9.02,-2.37zm0 -3.52c-12.08,0 -21.86,9.75 -21.86,21.79 0,12.05 9.78,21.8 21.86,21.8 12.09,0 21.87,-9.74 21.87,-21.8 0,-12.04 -9.79,-21.79 -21.87,-21.79z" class="fil1"></path>
     </g>
    </g>
   </g>
  </g>
 </g>
</svg>
