<?xml version="1.0" encoding="UTF-8"?>
<!DOCTYPE svg PUBLIC "-//W3C//DTD SVG 1.1//EN" "http://www.w3.org/Graphics/SVG/1.1/DTD/svg11.dtd">
<!-- Creator: CorelDRAW -->
<svg xmlns="http://www.w3.org/2000/svg" xml:space="preserve" width="1200px" height="272px" version="1.1" style="shape-rendering:geometricPrecision; text-rendering:geometricPrecision; image-rendering:optimizeQuality; fill-rule:evenodd; clip-rule:evenodd"
viewBox="0 0 114.65 26.01"
 xmlns:xlink="http://www.w3.org/1999/xlink"
 xmlns:xodm="http://www.corel.com/coreldraw/odm/2003">
 <defs>
  <style type="text/css">
   <![CDATA[
    .fil0 {fill:#D60024}
    .fil1 {fill:#ED3237}
    .fil2 {fill:#0076C6;fill-rule:nonzero}
   ]]>
  </style>
 </defs>
 <g id="Camada_x0020_1">
  <metadata id="CorelCorpID_0Corel-Layer"/>
  <g id="_2178575552992">
   <path class="fil0" d="M112.81 16.06l0.11 0c0.16,0 0.26,0 0.3,-0.02 0.04,-0.01 0.07,-0.03 0.09,-0.06 0.02,-0.03 0.03,-0.06 0.03,-0.1 0,-0.04 -0.01,-0.07 -0.03,-0.1 -0.02,-0.03 -0.05,-0.05 -0.09,-0.07 -0.04,-0.01 -0.14,-0.01 -0.3,-0.01l-0.11 0 0 0.36zm-0.28 0.78l0 -1.36 0.28 0c0.26,0 0.4,0 0.43,0 0.1,0.01 0.17,0.03 0.22,0.06 0.05,0.02 0.09,0.07 0.12,0.13 0.04,0.06 0.06,0.12 0.06,0.19 0,0.1 -0.04,0.18 -0.1,0.25 -0.07,0.07 -0.15,0.12 -0.27,0.13 0.04,0.02 0.07,0.04 0.09,0.05 0.03,0.02 0.06,0.06 0.1,0.11 0.01,0.01 0.04,0.07 0.1,0.16l0.16 0.28 -0.35 0 -0.11 -0.22c-0.07,-0.15 -0.14,-0.25 -0.19,-0.28 -0.05,-0.04 -0.11,-0.06 -0.19,-0.06l-0.07 0 0 0.56 -0.28 0 0 0zm0.58 -1.97c0.22,0 0.44,0.05 0.64,0.16 0.2,0.11 0.36,0.27 0.47,0.48 0.12,0.2 0.18,0.42 0.18,0.64 0,0.23 -0.06,0.44 -0.17,0.64 -0.12,0.2 -0.27,0.36 -0.48,0.48 -0.2,0.11 -0.41,0.17 -0.64,0.17 -0.22,0 -0.43,-0.06 -0.64,-0.17 -0.2,-0.12 -0.36,-0.28 -0.47,-0.48 -0.11,-0.2 -0.17,-0.41 -0.17,-0.64 0,-0.22 0.06,-0.44 0.17,-0.64 0.12,-0.21 0.28,-0.37 0.48,-0.48 0.2,-0.11 0.41,-0.16 0.63,-0.16zm0 -0.25c-0.84,0 -1.53,0.69 -1.53,1.53 0,0.85 0.69,1.53 1.53,1.53 0.85,0 1.54,-0.68 1.54,-1.53 0,-0.84 -0.69,-1.53 -1.54,-1.53z"/>
   <g>
    <path class="fil1" d="M53.55 2.57l2.23 2.22 2.22 -2.22c3.42,-3.43 9.02,-3.43 12.44,0 8.69,8.69 -8.56,23.44 -14.66,23.44 -6.1,0 -23.36,-14.75 -14.67,-23.44 3.43,-3.43 9.02,-3.43 12.44,0zm-5.79 13.3c-0.27,0 -0.52,-0.05 -0.76,-0.13 -0.24,-0.09 -0.44,-0.22 -0.61,-0.37 -0.17,-0.16 -0.3,-0.35 -0.4,-0.56 -0.1,-0.22 -0.15,-0.45 -0.15,-0.7 0,-0.28 0.06,-0.53 0.18,-0.75 0.11,-0.23 0.28,-0.42 0.49,-0.58 0.21,-0.16 0.46,-0.29 0.75,-0.38 0.28,-0.09 0.61,-0.14 0.96,-0.14 0.23,0 0.45,0.02 0.67,0.06 0.22,0.04 0.41,0.09 0.57,0.17l0 -0.25c0,-0.64 -0.37,-0.96 -1.11,-0.96 -0.3,0 -0.59,0.05 -0.86,0.15 -0.28,0.1 -0.56,0.26 -0.86,0.46l-0.5 -1.05c0.36,-0.24 0.74,-0.42 1.14,-0.54 0.39,-0.12 0.81,-0.18 1.25,-0.18 0.84,0 1.49,0.2 1.94,0.59 0.46,0.4 0.69,0.97 0.69,1.73l0 1.42c0,0.17 0.02,0.29 0.08,0.36 0.05,0.06 0.14,0.1 0.28,0.12l0 1.42c-0.15,0.04 -0.28,0.06 -0.41,0.07 -0.11,0.01 -0.22,0.01 -0.32,0.01 -0.32,0 -0.56,-0.06 -0.72,-0.18 -0.16,-0.12 -0.26,-0.3 -0.3,-0.52l-0.04 -0.25c-0.24,0.31 -0.53,0.55 -0.88,0.72 -0.34,0.17 -0.7,0.26 -1.08,0.26zm0.5 -1.22c0.18,0 0.36,-0.03 0.53,-0.09 0.17,-0.06 0.32,-0.15 0.43,-0.25 0.16,-0.13 0.24,-0.26 0.24,-0.4l0 -0.53c-0.15,-0.06 -0.31,-0.1 -0.48,-0.13 -0.17,-0.04 -0.33,-0.05 -0.48,-0.05 -0.31,0 -0.56,0.07 -0.76,0.21 -0.2,0.14 -0.3,0.32 -0.3,0.55 0,0.2 0.07,0.37 0.23,0.5 0.15,0.13 0.35,0.19 0.59,0.19zm9.94 1.11l-1.69 0 0 -3.11c0,-0.36 -0.07,-0.63 -0.21,-0.8 -0.13,-0.16 -0.32,-0.24 -0.54,-0.24 -0.12,0 -0.24,0.02 -0.36,0.07 -0.12,0.05 -0.23,0.12 -0.35,0.21 -0.11,0.08 -0.21,0.19 -0.3,0.3 -0.08,0.13 -0.15,0.26 -0.2,0.4l0 3.17 -1.69 0 0 -5.53 1.52 0 0 0.92c0.2,-0.33 0.49,-0.58 0.86,-0.76 0.38,-0.18 0.81,-0.27 1.29,-0.27 0.36,0 0.65,0.06 0.87,0.2 0.21,0.13 0.38,0.29 0.5,0.5 0.12,0.21 0.2,0.43 0.24,0.68 0.04,0.25 0.06,0.49 0.06,0.72l0 3.54zm3.9 0.11c-0.38,0 -0.73,-0.07 -1.05,-0.22 -0.32,-0.14 -0.59,-0.35 -0.82,-0.61 -0.24,-0.26 -0.42,-0.56 -0.55,-0.91 -0.13,-0.35 -0.19,-0.73 -0.19,-1.14 0,-0.4 0.06,-0.78 0.18,-1.13 0.12,-0.35 0.29,-0.66 0.5,-0.91 0.22,-0.26 0.48,-0.46 0.78,-0.61 0.3,-0.15 0.63,-0.22 0.99,-0.22 0.38,0 0.73,0.09 1.04,0.28 0.32,0.18 0.56,0.42 0.73,0.73l0 -3.07 1.68 0 0 5.8c0,0.17 0.03,0.29 0.08,0.36 0.06,0.06 0.15,0.1 0.28,0.12l0 1.42c-0.15,0.04 -0.29,0.06 -0.4,0.07 -0.11,0.01 -0.22,0.01 -0.32,0.01 -0.29,0 -0.53,-0.06 -0.71,-0.18 -0.18,-0.12 -0.29,-0.3 -0.32,-0.53l-0.03 -0.29c-0.2,0.35 -0.46,0.6 -0.8,0.77 -0.33,0.17 -0.69,0.26 -1.07,0.26zm0.46 -1.43c0.23,0 0.45,-0.07 0.67,-0.2 0.21,-0.14 0.38,-0.33 0.49,-0.57l0 -1.16c-0.11,-0.28 -0.28,-0.51 -0.51,-0.69 -0.24,-0.18 -0.48,-0.27 -0.74,-0.27 -0.18,0 -0.35,0.04 -0.5,0.12 -0.15,0.09 -0.28,0.19 -0.39,0.33 -0.12,0.13 -0.2,0.29 -0.26,0.46 -0.06,0.18 -0.09,0.36 -0.09,0.56 0,0.2 0.03,0.39 0.1,0.57 0.07,0.17 0.16,0.32 0.27,0.45 0.12,0.13 0.26,0.23 0.42,0.3 0.17,0.07 0.35,0.1 0.54,0.1z"/>
    <g>
     <path class="fil2" d="M0 13.49c0,-0.56 0.1,-1.11 0.3,-1.63 0.2,-0.52 0.49,-0.97 0.86,-1.37 0.38,-0.39 0.85,-0.7 1.4,-0.93 0.55,-0.23 1.18,-0.35 1.88,-0.35 0.95,0 1.75,0.2 2.4,0.61 0.65,0.4 1.14,0.93 1.47,1.58l-2.46 0.74c-0.32,-0.53 -0.8,-0.79 -1.43,-0.79 -0.53,0 -0.96,0.2 -1.31,0.58 -0.36,0.39 -0.53,0.91 -0.53,1.56 0,0.33 0.05,0.62 0.14,0.89 0.1,0.27 0.23,0.5 0.4,0.69 0.16,0.18 0.36,0.33 0.58,0.44 0.23,0.1 0.47,0.15 0.72,0.15 0.31,0 0.6,-0.07 0.87,-0.23 0.26,-0.15 0.45,-0.34 0.58,-0.58l2.45 0.75c-0.3,0.64 -0.79,1.16 -1.45,1.57 -0.67,0.42 -1.48,0.62 -2.43,0.62 -0.7,0 -1.32,-0.12 -1.87,-0.36 -0.55,-0.23 -1.02,-0.55 -1.4,-0.94 -0.38,-0.39 -0.67,-0.85 -0.87,-1.37 -0.2,-0.52 -0.3,-1.06 -0.3,-1.63zm13.31 4.3c-0.7,0 -1.33,-0.12 -1.88,-0.35 -0.55,-0.23 -1.01,-0.54 -1.39,-0.94 -0.38,-0.39 -0.67,-0.84 -0.86,-1.36 -0.19,-0.52 -0.29,-1.07 -0.29,-1.63 0,-0.57 0.1,-1.11 0.29,-1.63 0.19,-0.52 0.48,-0.98 0.86,-1.37 0.38,-0.39 0.84,-0.71 1.39,-0.95 0.55,-0.23 1.18,-0.35 1.88,-0.35 0.7,0 1.33,0.12 1.87,0.35 0.55,0.24 1.01,0.56 1.39,0.95 0.38,0.39 0.66,0.85 0.86,1.37 0.2,0.52 0.3,1.06 0.3,1.63 0,0.56 -0.09,1.11 -0.29,1.63 -0.19,0.52 -0.48,0.97 -0.86,1.36 -0.37,0.4 -0.84,0.71 -1.39,0.94 -0.55,0.23 -1.18,0.35 -1.88,0.35zm-1.84 -4.28c0,0.65 0.17,1.17 0.52,1.56 0.35,0.4 0.79,0.59 1.32,0.59 0.26,0 0.51,-0.05 0.72,-0.15 0.23,-0.11 0.42,-0.26 0.58,-0.44 0.16,-0.19 0.29,-0.42 0.38,-0.69 0.1,-0.27 0.15,-0.56 0.15,-0.87 0,-0.66 -0.18,-1.17 -0.52,-1.57 -0.35,-0.39 -0.78,-0.59 -1.31,-0.59 -0.26,0 -0.51,0.05 -0.73,0.16 -0.23,0.1 -0.42,0.25 -0.58,0.44 -0.16,0.19 -0.29,0.42 -0.39,0.68 -0.09,0.27 -0.14,0.56 -0.14,0.88zm7.02 -0.02c0,-0.56 0.1,-1.11 0.3,-1.63 0.2,-0.52 0.49,-0.97 0.86,-1.37 0.38,-0.39 0.84,-0.7 1.4,-0.93 0.54,-0.23 1.17,-0.35 1.87,-0.35 0.96,0 1.76,0.2 2.41,0.61 0.65,0.4 1.14,0.93 1.47,1.58l-2.46 0.74c-0.32,-0.53 -0.8,-0.79 -1.43,-0.79 -0.52,0 -0.97,0.2 -1.32,0.58 -0.34,0.39 -0.52,0.91 -0.52,1.56 0,0.33 0.05,0.62 0.14,0.89 0.1,0.27 0.23,0.5 0.39,0.69 0.17,0.18 0.37,0.33 0.59,0.44 0.23,0.1 0.47,0.15 0.72,0.15 0.32,0 0.6,-0.07 0.86,-0.23 0.27,-0.15 0.46,-0.34 0.59,-0.58l2.45 0.75c-0.3,0.64 -0.79,1.16 -1.45,1.57 -0.67,0.42 -1.48,0.62 -2.44,0.62 -0.69,0 -1.31,-0.12 -1.86,-0.36 -0.55,-0.23 -1.02,-0.55 -1.4,-0.94 -0.38,-0.39 -0.67,-0.85 -0.87,-1.37 -0.2,-0.52 -0.3,-1.06 -0.3,-1.63zm13.31 4.3c-0.7,0 -1.33,-0.12 -1.88,-0.35 -0.55,-0.23 -1.02,-0.54 -1.39,-0.94 -0.38,-0.39 -0.67,-0.84 -0.86,-1.36 -0.19,-0.52 -0.29,-1.07 -0.29,-1.63 0,-0.57 0.1,-1.11 0.29,-1.63 0.19,-0.52 0.48,-0.98 0.86,-1.37 0.37,-0.39 0.84,-0.71 1.39,-0.95 0.55,-0.23 1.18,-0.35 1.88,-0.35 0.7,0 1.33,0.12 1.87,0.35 0.55,0.24 1.01,0.56 1.39,0.95 0.38,0.39 0.66,0.85 0.86,1.37 0.2,0.52 0.3,1.06 0.3,1.63 0,0.56 -0.09,1.11 -0.29,1.63 -0.19,0.52 -0.48,0.97 -0.86,1.36 -0.38,0.4 -0.84,0.71 -1.39,0.94 -0.55,0.23 -1.18,0.35 -1.88,0.35zm-1.84 -4.28c0,0.65 0.17,1.17 0.52,1.56 0.34,0.4 0.78,0.59 1.32,0.59 0.26,0 0.5,-0.05 0.72,-0.15 0.22,-0.11 0.41,-0.26 0.58,-0.44 0.16,-0.19 0.29,-0.42 0.38,-0.69 0.1,-0.27 0.14,-0.56 0.14,-0.87 0,-0.66 -0.17,-1.17 -0.52,-1.57 -0.34,-0.39 -0.77,-0.59 -1.3,-0.59 -0.26,0 -0.51,0.05 -0.73,0.16 -0.23,0.1 -0.42,0.25 -0.58,0.44 -0.17,0.19 -0.3,0.42 -0.39,0.68 -0.09,0.27 -0.14,0.56 -0.14,0.88z"/>
     <path class="fil2" d="M75.97 6.14l2.52 0 0 8.55c0,0.62 0.27,0.94 0.8,0.94 0.13,0 0.27,-0.02 0.42,-0.05 0.15,-0.04 0.29,-0.1 0.42,-0.17l0.33 1.89c-0.32,0.15 -0.68,0.26 -1.09,0.34 -0.41,0.09 -0.79,0.13 -1.15,0.13 -0.72,0 -1.28,-0.18 -1.67,-0.56 -0.38,-0.38 -0.58,-0.93 -0.58,-1.64l0 -9.43zm8.54 11.65c-0.85,0 -1.49,-0.27 -1.93,-0.8 -0.43,-0.53 -0.65,-1.31 -0.65,-2.33l0 -5.29 2.52 0 0 4.73c0,0.51 0.1,0.89 0.3,1.16 0.19,0.27 0.48,0.4 0.84,0.4 0.34,0 0.67,-0.09 0.98,-0.27 0.32,-0.17 0.59,-0.48 0.83,-0.92l0 -5.1 2.52 0 0 5.43c0,0.25 0.04,0.42 0.12,0.53 0.08,0.09 0.22,0.15 0.42,0.18l0 2.12c-0.24,0.05 -0.45,0.09 -0.62,0.1 -0.16,0.02 -0.32,0.02 -0.45,0.02 -0.9,0 -1.42,-0.35 -1.54,-1.05l-0.05 -0.5c-0.38,0.54 -0.85,0.94 -1.41,1.2 -0.56,0.26 -1.19,0.39 -1.88,0.39zm16.06 -0.16l-2.52 0 0 -4.64c0,-0.55 -0.1,-0.94 -0.31,-1.19 -0.2,-0.25 -0.47,-0.37 -0.8,-0.37 -0.18,0 -0.36,0.04 -0.54,0.11 -0.18,0.07 -0.35,0.18 -0.52,0.31 -0.17,0.13 -0.32,0.28 -0.45,0.46 -0.13,0.18 -0.23,0.37 -0.3,0.58l0 4.74 -2.52 0 0 -8.26 2.26 0 0 1.38c0.31,-0.49 0.74,-0.87 1.29,-1.14 0.56,-0.27 1.2,-0.4 1.92,-0.4 0.54,0 0.97,0.1 1.29,0.29 0.33,0.2 0.58,0.45 0.76,0.76 0.18,0.31 0.3,0.64 0.35,1.01 0.06,0.37 0.09,0.73 0.09,1.07l0 5.29zm4.75 0.16c-0.41,0 -0.79,-0.07 -1.15,-0.2 -0.35,-0.13 -0.65,-0.31 -0.9,-0.55 -0.25,-0.24 -0.45,-0.51 -0.6,-0.83 -0.15,-0.33 -0.22,-0.67 -0.22,-1.05 0,-0.41 0.09,-0.78 0.26,-1.12 0.17,-0.33 0.42,-0.62 0.73,-0.86 0.32,-0.24 0.69,-0.43 1.12,-0.57 0.43,-0.14 0.91,-0.21 1.43,-0.21 0.35,0 0.68,0.03 1.01,0.09 0.32,0.06 0.61,0.15 0.85,0.26l0 -0.38c0,-0.95 -0.55,-1.43 -1.65,-1.43 -0.45,0 -0.88,0.08 -1.29,0.23 -0.41,0.15 -0.84,0.38 -1.29,0.68l-0.74 -1.57c0.54,-0.36 1.11,-0.62 1.7,-0.8 0.58,-0.18 1.21,-0.27 1.87,-0.27 1.25,0 2.21,0.29 2.89,0.88 0.69,0.59 1.02,1.45 1.02,2.58l0 2.13c0,0.25 0.05,0.42 0.12,0.53 0.08,0.09 0.22,0.15 0.42,0.18l0 2.12c-0.22,0.05 -0.42,0.09 -0.6,0.1 -0.18,0.02 -0.34,0.02 -0.48,0.02 -0.48,0 -0.83,-0.09 -1.07,-0.27 -0.25,-0.19 -0.4,-0.44 -0.46,-0.78l-0.05 -0.38c-0.36,0.47 -0.81,0.84 -1.31,1.09 -0.51,0.25 -1.05,0.38 -1.61,0.38zm0.73 -1.81c0.28,0 0.54,-0.05 0.8,-0.15 0.26,-0.09 0.47,-0.21 0.64,-0.37 0.24,-0.19 0.36,-0.39 0.36,-0.6l0 -0.79c-0.22,-0.08 -0.46,-0.14 -0.72,-0.19 -0.26,-0.05 -0.49,-0.07 -0.71,-0.07 -0.47,0 -0.85,0.1 -1.14,0.31 -0.3,0.21 -0.45,0.48 -0.45,0.82 0,0.3 0.11,0.55 0.34,0.75 0.23,0.19 0.53,0.29 0.88,0.29z"/>
    </g>
   </g>
  </g>
 </g>
</svg>
